<svg xmlns="http://www.w3.org/2000/svg" width="1095.434" height="167.116" viewBox="0 0 1095.4338 167.11626"><g transform="translate(-54 148.749)"><ellipse cx="135.111" cy="-67.638" rx="71.111" ry="71.111" fill="none" stroke="#8e0967" stroke-width="20" stroke-linecap="round" stroke-linejoin="round"/><g style="line-height:.01%" font-weight="700" font-family="Source Sans Pro" letter-spacing="0" word-spacing="0" fill="#8f0968" font-size="146.667"><path d="M256-108.206h22.147l6.6 44.733q1.026 7.48 1.906 15.107 1.027 7.48 2.054 15.107h.586q1.32-7.627 2.64-15.107 1.467-7.627 2.934-15.107l10.266-44.733h18.334l10.413 44.733q1.467 7.334 2.787 14.96 1.466 7.48 2.933 15.254h.587q.88-7.774 1.76-15.254L344-63.473l6.6-44.733h20.68l-17.013 95.627h-27.134l-9.386-43.414q-1.174-5.573-2.2-11.146-.88-5.72-1.614-11h-.586q-.88 5.28-1.76 11-.88 5.573-2.054 11.146l-9.093 43.414h-26.693zM378.54-48.953q0-9.093 2.933-16.133 2.934-7.187 7.774-12.027 4.986-4.84 11.44-7.333 6.453-2.64 13.346-2.64 6.894 0 13.2 2.64 6.454 2.493 11.294 7.333 4.986 4.84 7.92 12.027 2.933 7.04 2.933 16.133 0 9.094-2.933 16.28-2.934 7.04-7.92 11.88-4.84 4.84-11.294 7.48-6.306 2.494-13.2 2.494-6.893 0-13.346-2.494-6.454-2.64-11.44-7.48-4.84-4.84-7.774-11.88-2.933-7.186-2.933-16.28zm22.147 0q0 9.534 3.226 15.107 3.374 5.573 10.12 5.573 6.6 0 9.974-5.573 3.373-5.573 3.373-15.107 0-9.533-3.373-15.106-3.374-5.574-9.974-5.574-6.746 0-10.12 5.574-3.226 5.573-3.226 15.106zM464.148-85.326h17.6l1.466 12.76h.587q3.96-7.48 9.533-11 5.574-3.52 11.147-3.52 3.08 0 4.987.44 2.053.293 3.666 1.027l-3.52 18.626q-2.053-.586-3.813-.88-1.76-.293-4.107-.293-4.106 0-8.653 2.933-4.4 2.934-7.333 10.414v42.24h-21.56zM522.585-115.393h20.973v58.96h.587l23.027-28.893h23.466l-25.52 29.92 27.427 42.827h-23.32l-16.427-28.307-9.24 10.413v17.894h-20.973zM613.786-96.033q-5.426 0-8.946-3.08-3.52-3.226-3.52-8.213 0-4.987 3.52-8.067t8.946-3.08q5.574 0 8.947 3.08 3.52 3.08 3.52 8.067t-3.52 8.213q-3.373 3.08-8.947 3.08zM603.08-85.326h21.56v72.747h-21.56zM643.47-85.326h17.6l1.467 9.24h.587q4.693-4.4 10.266-7.627 5.574-3.373 13.054-3.373 11.88 0 17.16 7.773 5.426 7.774 5.426 21.56v45.174h-21.56v-42.387q0-7.92-2.2-10.853-2.053-2.934-6.746-2.934-4.107 0-7.04 1.907-2.934 1.76-6.454 5.133v49.134h-21.56zM740.603-3.486q0 4.107 4.4 6.16 4.4 2.2 11.733 2.2t12.027-2.64q4.693-2.493 4.693-6.307 0-3.373-2.933-4.546-2.787-1.174-8.214-1.174h-7.48q-3.813 0-6.16-.293-2.346-.147-4.106-.587-3.96 3.52-3.96 7.187zM722.856-.113q0-8.8 10.413-14.666v-.587q-2.933-1.907-4.84-4.84-1.906-2.933-1.906-7.48 0-3.96 2.346-7.48 2.347-3.667 5.867-6.16v-.587q-3.813-2.64-6.893-7.48-2.934-4.986-2.934-11.44 0-6.6 2.494-11.44 2.493-4.986 6.6-8.213 4.253-3.373 9.68-4.987 5.426-1.613 11.293-1.613 6.453 0 11.293 1.76h26.547v15.693H781.23q1.027 1.614 1.614 4.107.733 2.493.733 5.427 0 6.306-2.2 11-2.2 4.546-6.16 7.626-3.813 2.934-9.093 4.4-5.134 1.467-11.147 1.467-4.253 0-8.8-1.467-1.467 1.174-2.053 2.347-.587 1.173-.587 3.08 0 2.787 2.347 4.107 2.493 1.32 8.653 1.32h11.733q13.494 0 20.534 4.4 7.186 4.253 7.186 14.08 0 5.72-2.933 10.413-2.787 4.84-8.067 8.213-5.28 3.52-12.76 5.427-7.48 2.053-16.866 2.053-6.454 0-12.027-1.173-5.427-1.027-9.68-3.227-4.107-2.2-6.453-5.72-2.347-3.52-2.347-8.36zm32.12-48.546q4.253 0 7.04-2.934 2.933-3.08 2.933-9.24 0-5.72-2.933-8.653-2.787-3.08-7.04-3.08t-7.187 2.933q-2.786 2.934-2.786 8.8 0 6.16 2.786 9.24 2.934 2.934 7.187 2.934zM836.697-108.206h27.133q11 0 19.8 2.787 8.8 2.786 15.107 8.653 6.307 5.72 9.68 14.667 3.373 8.946 3.373 21.266 0 12.32-3.373 21.414-3.373 9.093-9.533 15.106-6.16 5.867-14.814 8.8-8.506 2.934-19.066 2.934h-28.307zm25.813 78.173q6.014 0 11-1.613 4.987-1.613 8.507-5.133 3.667-3.667 5.573-9.534 2.054-5.866 2.054-14.52 0-8.506-2.054-14.226-1.906-5.867-5.573-9.24-3.52-3.52-8.507-4.987-4.986-1.467-11-1.467h-4.106v60.72zM928.21-85.326h17.6l1.467 12.76h.586q3.96-7.48 9.534-11 5.573-3.52 11.146-3.52 3.08 0 4.987.44 2.053.293 3.667 1.027l-3.52 18.626q-2.054-.586-3.814-.88-1.76-.293-4.106-.293-4.107 0-8.654 2.933-4.4 2.934-7.333 10.414v42.24h-21.56zM979.71-32.82q0-11.44 9.68-17.893 9.68-6.453 31.24-8.653-.293-4.84-2.933-7.627-2.64-2.933-8.506-2.933-4.694 0-9.387 1.76-4.693 1.76-9.973 4.84l-7.627-14.227q7.04-4.253 14.667-6.893 7.773-2.64 16.426-2.64 14.08 0 21.414 8.067 7.48 7.92 7.48 24.786v41.654h-17.6l-1.614-7.48h-.44q-4.693 4.106-9.973 6.746-5.133 2.494-11.293 2.494-4.987 0-8.947-1.76-3.96-1.614-6.747-4.547-2.786-3.08-4.4-7.04-1.466-3.96-1.466-8.653zm20.534-1.613q0 3.52 2.2 5.28 2.347 1.614 6.16 1.614t6.453-1.614q2.64-1.613 5.574-4.546v-12.76q-11.587 1.613-15.987 4.693-4.4 3.08-4.4 7.333zM1149.434-13.46q-2.934.88-6.894 1.76t-9.24.88q-6.746 0-11.586-2.053-4.694-2.053-7.774-5.72-2.933-3.666-4.4-8.8-1.32-5.28-1.32-11.586v-29.48h-22.44v55.88h-21.56v-55.88h-9.68v-15.987l9.68-.733v-3.96q0-5.72 1.32-10.854 1.467-5.133 4.694-8.946 3.226-3.814 8.36-6.014 5.133-2.2 12.466-2.2 4.547 0 8.214.88 3.813.88 6.306 1.76l-3.96 15.84q-4.106-1.466-7.48-1.466-3.96 0-6.16 2.493-2.2 2.347-2.2 7.92v4.4h23.614l2.493-19.36h17.893v19.36h17.454v16.867h-17.454v29.186q0 6.16 2.494 8.947 2.64 2.64 6.893 2.64 1.76 0 3.52-.44 1.907-.44 3.373-1.027z" style="line-height:85.00000238%;-inkscape-font-specification:'Source Sans Pro Bold'"/></g><path style="line-height:normal;text-indent:0;text-align:start;text-decoration-line:none;text-decoration-style:solid;text-decoration-color:#000;text-transform:none;isolation:auto;mix-blend-mode:normal" d="M123.111-116.082l2.222 66.222h19.556l2.222-66.222z" color="#000" font-weight="400" font-family="sans-serif" white-space="normal" overflow="visible" fill="#8f0968" fill-rule="evenodd"/><ellipse cy="-30.082" cx="135.111" rx="8.889" ry="8.889" fill="#8f0968" stroke="#8e0967" stroke-width="4" stroke-linecap="round" stroke-linejoin="round"/></g></svg>
